<svg xmlns="http://www.w3.org/2000/svg" width="32" height="17" fill="none" viewBox="0 0 32 17"><path fill="#3F3A81" d="M11.71 7.717a.527.527 0 0 1-.374.16.527.527 0 0 1-.373-.16L8.536 5.29v7.787c0 .293-.24.533-.533.533a.535.535 0 0 1-.533-.533V5.29L5.043 7.704a.531.531 0 0 1-.76 0 .531.531 0 0 1 0-.76l3.333-3.32a.516.516 0 0 1 .747 0l3.333 3.32c.227.226.227.56.014.773ZM27.71 10.13l-3.333 3.32a.527.527 0 0 1-.374.16.527.527 0 0 1-.373-.16l-3.333-3.32a.531.531 0 0 1 0-.76.531.531 0 0 1 .76 0l2.426 2.414V4.01a.535.535 0 0 1 1.067 0v7.787l2.427-2.413a.531.531 0 0 1 .76 0 .54.54 0 0 1-.027.746Z"/></svg>