<svg width="140" height="43" viewBox="0 0 140 43" fill="none" xmlns="http://www.w3.org/2000/svg">
<path d="M16.0621 0C18.1677 0 19.5723 0.510098 20.7642 1.68985C21.9463 2.87202 22.454 4.2766 22.454 6.39194V12.7839H6.39195C4.27903 12.7839 2.87202 12.2738 1.68985 11.094C0.517351 9.92877 0 8.47101 0 6.39194C0 4.31286 0.527021 2.86477 1.68985 1.68985C2.87202 0.510098 4.27903 0 6.39195 0H16.0621Z" fill="#1E1E1C"/>
<path d="M16.3138 16.1733C18.3929 16.1733 19.841 16.6906 21.0159 17.8631C22.1884 19.0356 22.7058 20.4861 22.7058 22.5652V42.5775H8.11115C5.48088 42.5775 3.64356 41.9127 2.15919 40.4307C0.67483 38.9464 0.0100098 37.109 0.0100098 34.4788V22.558C0.0100098 20.4789 0.537031 19.0308 1.69986 17.8559C2.86511 16.6834 4.31321 16.166 6.40196 16.166H16.3138" fill="#1E1E1C"/>
<path d="M30.7705 0C33.4371 0 35.2139 0.638227 36.7128 2.14676C38.2141 3.64805 38.8596 5.42493 38.8596 8.08904V20.1404C38.8596 22.2461 38.3495 23.6507 37.1697 24.8425C35.9972 26.015 34.5467 26.5323 32.4676 26.5323C30.3886 26.5323 28.9405 26.015 27.7655 24.8425C26.5906 23.67 26.0757 22.2557 26.0757 20.1404V0H30.7609" fill="#1E1E1C"/>
<path d="M32.4797 29.7695C34.4718 29.7695 36.0601 30.3377 37.1818 31.4594C38.3036 32.5811 38.8717 34.167 38.8717 36.1615V42.6138H32.4193C30.3136 42.6138 28.909 42.1037 27.7172 40.924C26.535 39.7418 26.0273 38.3372 26.0273 36.2219V36.1615C26.0273 34.1694 26.5955 32.5811 27.7172 31.4594C28.8389 30.3377 30.4176 29.7695 32.4193 29.7695H32.4797Z" fill="#E41544"/>
<path d="M55.9495 31.0943H53.092V39.2849H50.8655V31.0943H48.0225V29.0273H55.9495V31.0943Z" fill="#1E1E1C"/>
<path d="M63.7164 35.9284H57.7379C57.8249 36.4651 58.0376 36.8785 58.3761 37.1662C58.7121 37.4539 59.1449 37.5989 59.6719 37.5989C60.0321 37.5989 60.3609 37.5191 60.6534 37.3572C60.9459 37.1952 61.1756 36.9728 61.3424 36.6899H63.598C63.3054 37.5506 62.805 38.2323 62.0967 38.74C61.3883 39.2477 60.5809 39.5015 59.6719 39.5015C58.9007 39.5015 58.202 39.3178 57.5759 38.9527C56.9497 38.5853 56.459 38.0848 56.1036 37.4514C55.7458 36.8156 55.5693 36.1097 55.5693 35.3264C55.5693 34.5432 55.7482 33.8348 56.1036 33.1942C56.459 32.5535 56.9497 32.0531 57.5759 31.6929C58.202 31.3327 58.8983 31.1514 59.6719 31.1514C60.4455 31.1514 61.1683 31.3375 61.7896 31.7074C62.4109 32.0797 62.8944 32.5825 63.2402 33.2159C63.5859 33.8517 63.7599 34.5456 63.7599 35.2974C63.7599 35.5126 63.7454 35.7229 63.7164 35.9284ZM58.48 33.3634C58.1537 33.6269 57.9264 33.9944 57.7983 34.4634H61.6228C61.4754 33.9847 61.2336 33.6172 60.8976 33.3561C60.5615 33.0975 60.153 32.9669 59.6743 32.9669C59.1956 32.9669 58.8064 33.0999 58.48 33.3634Z" fill="#1E1E1C"/>
<path d="M66.6203 38.9455C65.9797 38.5756 65.4768 38.0679 65.1118 37.4297C64.7443 36.789 64.563 36.0783 64.563 35.2974C64.563 34.5166 64.7467 33.8227 65.1118 33.1869C65.4792 32.5511 65.9821 32.0531 66.6203 31.6929C67.261 31.3327 67.9765 31.1514 68.7671 31.1514C69.4416 31.1514 70.0604 31.2867 70.6286 31.5551C71.1943 31.8234 71.6657 32.203 72.0428 32.6913C72.4175 33.1797 72.6714 33.7454 72.7971 34.3908H70.6721C70.4956 33.9992 70.2393 33.697 69.9033 33.4819C69.5673 33.2667 69.1829 33.1603 68.7526 33.1603C68.3706 33.1603 68.0273 33.2546 67.7203 33.4456C67.4133 33.6366 67.1715 33.8953 66.995 34.2216C66.8185 34.548 66.7315 34.913 66.7315 35.3119C66.7315 35.7108 66.8185 36.0807 66.995 36.4192C67.1715 36.7552 67.4157 37.0187 67.7275 37.2097C68.0394 37.4007 68.3827 37.495 68.7526 37.495C69.1829 37.495 69.5624 37.3813 69.8961 37.1517C70.2273 36.922 70.4859 36.5932 70.6721 36.1629H72.8261C72.698 36.818 72.4441 37.3983 72.0646 37.9059C71.6826 38.4136 71.2064 38.8077 70.6358 39.0857C70.0653 39.3637 69.4367 39.5039 68.7526 39.5039C67.9717 39.5039 67.261 39.3178 66.6203 38.9479V38.9455Z" fill="#1E1E1C"/>
<path d="M80.6706 32.0681C81.188 32.658 81.4467 33.463 81.4467 34.4784V39.2844H79.3072V34.8314C79.3072 34.2366 79.1984 33.7918 78.9784 33.4993C78.7584 33.2068 78.4103 33.0593 77.9316 33.0593C77.3949 33.0593 76.9646 33.2455 76.643 33.6153C76.3215 33.9876 76.1595 34.4905 76.1595 35.1239V39.2844H74.02V29.0293H76.1595V32.1068C76.4617 31.8143 76.8219 31.587 77.2353 31.4251C77.6512 31.2631 78.0863 31.1833 78.5456 31.1833C79.445 31.1833 80.1533 31.4783 80.6706 32.0705V32.0681Z" fill="#1E1E1C"/>
<path d="M89.7996 32.0824C90.3218 32.6819 90.5829 33.487 90.5829 34.4927V39.2842H88.4434V34.8311C88.4434 33.649 87.984 33.0591 87.0654 33.0591C86.519 33.0591 86.0863 33.2452 85.7696 33.6151C85.4529 33.9874 85.2933 34.4903 85.2933 35.1236V39.2842H83.1538V31.3717H84.6188L85.0443 32.3532C85.3465 31.993 85.7261 31.7053 86.1806 31.4949C86.6351 31.2846 87.1306 31.1807 87.6673 31.1807C88.5667 31.1807 89.2774 31.4804 89.7996 32.0824Z" fill="#1E1E1C"/>
<path d="M93.8759 38.96C93.2256 38.5998 92.7155 38.0969 92.3456 37.4587C91.9733 36.818 91.7896 36.1073 91.7896 35.3264C91.7896 34.5456 91.9757 33.8227 92.3456 33.1869C92.7155 32.5511 93.228 32.0531 93.8759 31.6929C94.5262 31.3327 95.2563 31.1514 96.0662 31.1514C96.876 31.1514 97.5916 31.3327 98.2419 31.6929C98.8923 32.0531 99.4024 32.5535 99.7722 33.1869C100.142 33.8227 100.328 34.5359 100.328 35.3264C100.328 36.117 100.142 36.818 99.7722 37.4587C99.3999 38.0993 98.8898 38.5998 98.2419 38.96C97.5916 39.3202 96.8664 39.5015 96.0662 39.5015C95.266 39.5015 94.5262 39.3202 93.8759 38.96ZM97.5771 36.8882C97.9663 36.482 98.1622 35.9622 98.1622 35.3289C98.1622 34.6955 97.9663 34.1733 97.5771 33.7695C97.1855 33.3634 96.6826 33.1603 96.0686 33.1603C95.4545 33.1603 94.9348 33.3634 94.5455 33.7695C94.1539 34.1757 93.9605 34.6955 93.9605 35.3289C93.9605 35.9622 94.1563 36.4844 94.5455 36.8882C94.9348 37.2943 95.4449 37.495 96.0686 37.495C96.6923 37.495 97.1879 37.2919 97.5771 36.8882Z" fill="#1E1E1C"/>
<path d="M101.651 29.0273H103.79V39.2825H101.651V29.0273Z" fill="#1E1E1C"/>
<path d="M107.196 38.96C106.546 38.5998 106.036 38.0969 105.666 37.4587C105.294 36.818 105.11 36.1073 105.11 35.3264C105.11 34.5456 105.296 33.8227 105.666 33.1869C106.036 32.5511 106.548 32.0531 107.196 31.6929C107.847 31.3327 108.577 31.1514 109.386 31.1514C110.196 31.1514 110.912 31.3327 111.562 31.6929C112.213 32.0531 112.723 32.5535 113.093 33.1869C113.462 33.8227 113.649 34.5359 113.649 35.3264C113.649 36.117 113.462 36.818 113.093 37.4587C112.72 38.0993 112.21 38.5998 111.562 38.96C110.912 39.3202 110.187 39.5015 109.386 39.5015C108.586 39.5015 107.847 39.3202 107.196 38.96ZM110.897 36.8882C111.287 36.482 111.482 35.9622 111.482 35.3289C111.482 34.6955 111.287 34.1733 110.897 33.7695C110.506 33.3634 110.003 33.1603 109.389 33.1603C108.775 33.1603 108.255 33.3634 107.866 33.7695C107.474 34.1757 107.281 34.6955 107.281 35.3289C107.281 35.9622 107.477 36.4844 107.866 36.8882C108.255 37.2943 108.765 37.495 109.389 37.495C110.013 37.495 110.508 37.2919 110.897 36.8882Z" fill="#1E1E1C"/>
<path d="M122.746 31.3714V38.3604C122.746 39.6006 122.383 40.5773 121.66 41.2905C120.937 42.0036 119.951 42.359 118.701 42.359C117.638 42.359 116.745 42.1003 116.027 41.583C115.309 41.0656 114.857 40.3573 114.671 39.458H116.796C116.903 39.7892 117.135 40.0503 117.492 40.2413C117.848 40.4322 118.237 40.5265 118.658 40.5265C119.214 40.5265 119.683 40.3573 120.065 40.0213C120.447 39.6852 120.635 39.2332 120.635 38.665V38.3725C119.98 38.8415 119.228 39.076 118.38 39.076C117.657 39.076 116.994 38.902 116.395 38.5562C115.795 38.2105 115.322 37.7343 114.973 37.1275C114.628 36.5231 114.454 35.8535 114.454 35.1209C114.454 34.3884 114.628 33.7309 114.973 33.1216C115.319 32.5124 115.793 32.0313 116.395 31.6784C116.997 31.3254 117.657 31.1514 118.38 31.1514C118.887 31.1514 119.366 31.2384 119.816 31.4149C120.265 31.5914 120.664 31.8404 121.017 32.1619L121.353 31.3714H122.746ZM120.079 36.5956C120.461 36.2088 120.65 35.7181 120.65 35.1234C120.65 34.5286 120.459 34.0524 120.079 33.6656C119.697 33.2788 119.214 33.0878 118.629 33.0878C118.044 33.0878 117.575 33.2812 117.193 33.6656C116.811 34.0524 116.622 34.5383 116.622 35.1234C116.622 35.7084 116.811 36.2112 117.185 36.5956C117.56 36.9824 118.044 37.1734 118.629 37.1734C119.214 37.1734 119.697 36.98 120.079 36.5956Z" fill="#1E1E1C"/>
<path d="M132.275 31.3721L128.818 39.1807C128.487 39.9229 128.163 40.5031 127.851 40.9237C127.539 41.3444 127.176 41.6514 126.768 41.8472C126.357 42.043 125.854 42.1397 125.259 42.1397H124.379V40.2057H125.126C125.477 40.2057 125.75 40.167 125.946 40.0897C126.142 40.0123 126.306 39.8721 126.444 39.6714C126.582 39.4708 126.736 39.1613 126.913 38.7407L126.942 38.6827L123.586 31.3721H125.917L128.027 36.2361L129.99 31.3721H132.277H132.275Z" fill="#1E1E1C"/>
<path d="M62.6289 20.4952H54.2159L52.7678 24.5058H47.9424L56.2055 3.39844H60.5184L69.0522 24.5058H64.106L62.6289 20.4952ZM55.6616 16.5135H61.1808L58.4079 8.97567L55.664 16.5135H55.6616Z" fill="#1E1E1C"/>
<path d="M94.6299 9.65499C95.696 10.871 96.2279 12.5246 96.2279 14.6158V24.5058H91.8256V15.3386C91.8256 14.1129 91.5983 13.1967 91.1462 12.5947C90.6942 11.9927 89.9762 11.6905 88.9898 11.6905C87.885 11.6905 87.0002 12.0725 86.3354 12.8365C85.6729 13.6004 85.3393 14.6351 85.3393 15.943V24.5058H80.937V3.39844H85.3393V9.72994C85.9631 9.12797 86.7004 8.65897 87.5562 8.32777C88.4096 7.99657 89.3089 7.82976 90.2542 7.82976C92.1036 7.82976 93.5613 8.43898 94.6251 9.65499H94.6299Z" fill="#1E1E1C"/>
<path d="M98.9453 3.39844H103.348V24.5058H98.9453V3.39844Z" fill="#1E1E1C"/>
<path d="M109.556 23.8412C108.219 23.0966 107.167 22.0668 106.406 20.7516C105.642 19.4341 105.26 17.9739 105.26 16.3638C105.26 14.7538 105.642 13.2694 106.406 11.9615C107.17 10.6561 108.219 9.62861 109.556 8.88643C110.893 8.14183 112.394 7.76953 114.065 7.76953C115.735 7.76953 117.205 8.14183 118.542 8.88643C119.879 9.63103 120.928 10.6561 121.692 11.9615C122.456 13.2694 122.838 14.7368 122.838 16.3638C122.838 17.9908 122.456 19.4341 121.692 20.7516C120.928 22.0692 119.879 23.0991 118.542 23.8412C117.205 24.5858 115.711 24.9581 114.065 24.9581C112.418 24.9581 110.893 24.5858 109.556 23.8412ZM117.169 19.5743C117.974 18.7403 118.375 17.6693 118.375 16.3638C118.375 15.0584 117.974 13.9874 117.169 13.1534C116.364 12.3193 115.329 11.9011 114.062 11.9011C112.795 11.9011 111.729 12.3193 110.927 13.1534C110.122 13.9874 109.72 15.0584 109.72 16.3638C109.72 17.6693 110.122 18.7403 110.927 19.5743C111.732 20.4084 112.776 20.8266 114.062 20.8266C115.348 20.8266 116.364 20.4108 117.169 19.5743Z" fill="#1E1E1C"/>
<path d="M138.387 9.68432C139.463 10.9197 140 12.5733 140 14.6451V24.5062H135.598V15.3389C135.598 12.9069 134.652 11.6909 132.764 11.6909C131.638 11.6909 130.748 12.0728 130.095 12.8368C129.443 13.6007 129.116 14.6354 129.116 15.9433V24.5062H124.714V8.22172H127.729L128.604 10.2428C129.227 9.49817 130.006 8.91071 130.941 8.47797C131.877 8.04524 132.897 7.83008 134.002 7.83008C135.851 7.83008 137.314 8.44897 138.39 9.68432H138.387Z" fill="#1E1E1C"/>
<path d="M77.0901 20.5846C76.2851 20.5846 75.6686 20.3695 75.2359 19.9367C74.8031 19.504 74.588 18.8972 74.588 18.1115V11.7486H78.9903V8.2214H74.588V3.39844H70.1857V8.22382H67.2314V11.751H70.1857V18.6869C70.1857 20.4952 70.703 21.9191 71.7377 22.9538C72.7724 23.9885 74.1843 24.5058 75.9732 24.5058H79.0797V20.587H77.0901V20.5846Z" fill="#1E1E1C"/>
</svg>
