<svg width="42" height="46" viewBox="0 0 42 46" fill="none" xmlns="http://www.w3.org/2000/svg">
<path d="M17.2095 0C19.4656 0 20.9705 0.546538 22.2475 1.81057C23.5141 3.07719 24.058 4.58211 24.058 6.84856V13.6971H6.84856C4.5847 13.6971 3.07719 13.1506 1.81057 11.8866C0.554309 10.6381 0 9.07616 0 6.84856C0 4.62097 0.56467 3.06942 1.81057 1.81057C3.07719 0.546538 4.5847 0 6.84856 0H17.2095Z" fill="#1E1E1C"/>
<path d="M17.4792 17.3286C19.7068 17.3286 21.2584 17.8829 22.5172 19.1392C23.7735 20.3955 24.3278 21.9496 24.3278 24.1772V45.6191H8.69059C5.87243 45.6191 3.90385 44.9068 2.31345 43.319C0.723055 41.7286 0.0107422 39.76 0.0107422 36.9418V24.1694C0.0107422 21.9418 0.575412 20.3903 1.82131 19.1314C3.0698 17.8752 4.62135 17.3209 6.8593 17.3209H17.4792" fill="#1E1E1C"/>
<path d="M32.9687 0C35.8257 0 37.7295 0.683821 39.3355 2.30012C40.944 3.90866 41.6356 5.81247 41.6356 8.66691V21.5792C41.6356 23.8353 41.0891 25.3402 39.825 26.6172C38.5688 27.8735 37.0146 28.4278 34.787 28.4278C32.5594 28.4278 31.0079 27.8735 29.749 26.6172C28.4902 25.3609 27.9385 23.8456 27.9385 21.5792V0H32.9583" fill="#1E1E1C"/>
<path d="M34.8 31.8961C36.9344 31.8961 38.6362 32.5048 39.838 33.7066C41.0399 34.9085 41.6486 36.6077 41.6486 38.7446V45.6579H34.7353C32.4792 45.6579 30.9743 45.1114 29.6973 43.8474C28.4307 42.5808 27.8867 41.0758 27.8867 38.8094V38.7446C27.8867 36.6103 28.4954 34.9085 29.6973 33.7066C30.8992 32.5048 32.5906 31.8961 34.7353 31.8961H34.8Z" fill="#E41544"/>
</svg>
