<svg xmlns="http://www.w3.org/2000/svg" width="180" height="59" fill="none" viewBox="0 0 180 59"><g clip-path="url(#a)"><path fill="#3F3980" d="m52.096 33.9 3.224 1.85-.097.18c-1.343 2.54-4.071 4.123-7.103 4.123-4.75 0-8.333-3.582-8.333-8.32s3.584-8.318 8.333-8.318c3.054 0 5.759 1.561 7.05 4.09l.085.182-3.233 1.88-.095-.213c-.656-1.402-2.089-2.253-3.838-2.253-2.598 0-4.548 1.999-4.548 4.631 0 2.636 1.95 4.623 4.548 4.623 1.706 0 3.17-.84 3.9-2.253l.107-.2v-.003Z"/><mask id="b" width="9" height="17" x="171" y="23" maskUnits="userSpaceOnUse" style="mask-type:luminance"><path fill="#fff" d="M171.509 23.533H180v16.116h-8.491V23.533Z"/></mask><g mask="url(#b)"><path fill="#3F3980" d="M180 23.533v4.046l-.233-.01c-1.347-.096-2.566.276-3.362 1.02-.762.712-1.145 1.753-1.145 3.082v7.978h-3.751V23.82h3.752v1.952c.944-1.441 2.513-2.238 4.517-2.238H180v-.001Z"/></g><path fill="#3F3980" d="M76.562 30.224c.52-2.113 2.14-3.367 4.38-3.367 2.14 0 3.678 1.254 4.134 3.367h-8.514Zm4.412-6.81c-4.825 0-8.334 3.496-8.334 8.32 0 4.897 3.53 8.319 8.576 8.319 2.959 0 5.409-1.232 6.914-3.454l.127-.19-3.107-1.817-.106.159c-.795 1.157-2.173 1.827-3.795 1.827-2.375 0-4.103-1.201-4.655-3.22h12.16l.022-.18c.064-.456.127-.945.127-1.413 0-4.759-3.413-8.35-7.93-8.35Z"/><mask id="c" width="180" height="59" x="0" y="0" maskUnits="userSpaceOnUse" style="mask-type:luminance"><path fill="#fff" d="M0 58.413h180V0H0v58.413Z"/></mask><g mask="url(#c)"><path fill="#3F3980" d="M137.326 39.648h3.754v-15.83h-3.754v15.83ZM97.253 23.82h3.817v3.623h-3.817v7.183c0 .604.127.997.381 1.24.498.481 1.548.449 3.214.374l.221-.01v3.399l-.191.02c-.763.097-1.463.139-2.098.139-1.77 0-3.032-.371-3.88-1.126-.934-.828-1.39-2.145-1.39-4.036V27.44h-2.83V23.82h2.83v-3.283l3.743-1.106v4.39Zm47.739 15.83h3.742V16.722h-3.742v22.927ZM117.97 21.47h-6.055v18.177h-3.964V21.471h-6.086v-3.814h16.105v3.814ZM33.098 39.648h3.753v-15.83h-3.752l-.001 15.83Zm4.21-20.057c0 1.263-1.072 2.337-2.333 2.337-1.262 0-2.333-1.074-2.333-2.337a2.34 2.34 0 0 1 2.333-2.337 2.341 2.341 0 0 1 2.333 2.337Zm104.227 0c0 1.263-1.07 2.337-2.331 2.337-1.263 0-2.333-1.074-2.333-2.337a2.342 2.342 0 0 1 2.333-2.337 2.338 2.338 0 0 1 2.331 2.337Zm18.586 16.796c-2.608 0-4.58-1.997-4.58-4.654 0-2.656 1.972-4.663 4.58-4.663 2.619 0 4.592 2.008 4.592 4.663 0 2.657-1.973 4.654-4.592 4.654Zm0-12.972c-4.675 0-8.333 3.655-8.333 8.318 0 4.666 3.658 8.319 8.332 8.319 4.677 0 8.334-3.653 8.334-8.319 0-4.663-3.657-8.318-8.334-8.318M124.975 36.45c-2.693 0-4.644-1.987-4.644-4.719 0-2.73 1.951-4.716 4.644-4.716s4.655 1.986 4.655 4.717c0 2.73-1.962 4.718-4.655 4.718Zm4.655-12.633v1.796c-1.274-1.445-3.045-2.2-5.175-2.2-4.41 0-7.867 3.655-7.867 8.32 0 4.578 3.53 8.319 7.867 8.319 2.141 0 3.913-.764 5.175-2.22v1.815h3.743V23.82h-3.743v-.002ZM14.47 17.657h16.104v3.814H24.52v18.177h-3.965V21.471H14.47v-3.814Zm50.423 13.918 7.2 8.072h-4.538l-5.992-6.765v6.766h-3.752V17.655h3.752v12.623l5.652-6.46h4.633l-6.955 7.757Z"/></g><mask id="d" width="180" height="59" x="0" y="0" maskUnits="userSpaceOnUse" style="mask-type:luminance"><path fill="#fff" d="M0 58.413h180V0H0v58.413Z"/></mask><g mask="url(#d)"><path fill="#3F3980" d="M15.4 58.412a1.959 1.959 0 0 1-1.882-1.425L.076 10.017a1.96 1.96 0 0 1 .17-1.498c.255-.46.672-.791 1.176-.936l7.235-2.077a1.956 1.956 0 0 1 2.297 1.034 4.19 4.19 0 0 0 4.942 2.207 4.205 4.205 0 0 0 3.02-4.495 1.956 1.956 0 0 1 1.402-2.097l7.235-2.08a1.96 1.96 0 0 1 2.427 1.35l3.083 10.777a.9.9 0 1 1-1.733.498L28.245 1.922a.16.16 0 0 0-.197-.109l-7.234 2.08c-.07.019-.114.089-.105.167a6.007 6.007 0 0 1-4.317 6.423 5.991 5.991 0 0 1-7.06-3.154.156.156 0 0 0-.18-.087l-7.233 2.08c-.073.021-.13.124-.11.196L15.25 56.49a.16.16 0 0 0 .197.11l7.233-2.08a.154.154 0 0 0 .107-.166 6.007 6.007 0 0 1 4.32-6.43 5.987 5.987 0 0 1 7.058 3.157c.035.07.106.11.18.088l7.234-2.08c.07-.02.129-.124.108-.196l-1.87-6.534a.9.9 0 1 1 1.732-.498l1.872 6.534a1.948 1.948 0 0 1-.171 1.495 1.951 1.951 0 0 1-1.175.936l-7.234 2.08a1.951 1.951 0 0 1-2.298-1.04 4.19 4.19 0 0 0-4.938-2.205 4.204 4.204 0 0 0-3.027 4.496 1.958 1.958 0 0 1-1.4 2.1l-7.232 2.077c-.177.05-.36.076-.545.077"/></g></g><defs><clipPath id="a"><path fill="#fff" d="M0 0h180v58.544H0z"/></clipPath></defs></svg>