<svg width="32" height="32" viewBox="0 0 32 32" xmlns="http://www.w3.org/2000/svg" xmlns:xlink="http://www.w3.org/1999/xlink"><defs><path id="a" d="M16 32H0V0h32v32H16z"/></defs><g fill="none" fill-rule="evenodd"><mask id="b" fill="#fff"><use xlink:href="#a"/></mask><path d="M26.934 0H5.066C2.268 0 0 2.202 0 4.918V32h26.933c2.8 0 5.067-2.202 5.067-4.917V4.918C32 2.202 29.732 0 26.934 0" fill="#ED1F4E" mask="url(#b)"/><path d="M13.333 19.5l2.759-7.941L18.76 19.5h-5.427zM15.859 5c-.993 0-1.765.63-2.244 1.88C13.377 7.503 6.374 27 6.374 27h2.859c.993 0 1.766-.815 2.244-2.064l.66-1.983h7.757L21.182 27h4.445L17.656 5h-1.797z" fill="#FFF"/></g></svg>